# xmcd CD database file generated by Grip 2.95
# 
# Track frame offsets:
#       150
#       20129
#       28868
#       43877
#       59398
#       69571
#       72295
#       88385
#       98625
#       109500
#       119314
#       122845
#       139252
#       141117
#       158608
#       162062
# 
# Disc length: 2470 seconds
# 
# Revision: 3
# Processed by: cddbd v1.5PL3 Copyright (c) Steve Scherf et al.
# Submitted via: Grip 2.95
# 
DISCID=e509a410
DTITLE=Scott H Biram - 2004-01-14 Little Rock
DYEAR=1900
DGENRE=
TTITLE0=Someday Baby
TTITLE1=Blood, Sweat and Murder
TTITLE2=Mule Skinner Blues
TTITLE3=Green Onions - Cold River
TTITLE4=Throw a Boogie
TTITLE5="first show on a big ass long tour"
TTITLE6=Mr Tom Hughes Town
TTITLE7=Whiskey
TTITLE8=White House Blues
TTITLE9=Love The Woman
TTITLE10="what was that about f*** Texas?"
TTITLE11=Truck Driver
TTITLE12="I got two more for ya"
TTITLE13=Fixin' To Die Blues 
TTITLE14="the best cure for a broken heart"
TTITLE15=I See the Light
EXTD=
EXTT0=
EXTT1=
EXTT2=
EXTT3=
EXTT4=
EXTT5=
EXTT6=
EXTT7=
EXTT8=
EXTT9=
EXTT10=
EXTT11=
EXTT12=
EXTT13=
EXTT14=
EXTT15=
PLAYORDER=
